<svg xmlns="http://www.w3.org/2000/svg" width="243" height="296" viewBox="0 0 243 296" xmlns:xlink="http://www.w3.org/1999/xlink">
  <defs>
    <path id="b" d="M0,17.932125 C0,17.932125 28.6021505,-8.65938835 85.8064516,9.23027099 C143.010753,27.1199303 171.612903,17.932125 171.612903,17.932125 L143.559738,172.036119 C143.256542,173.701661 141.952125,175.918959 140.53911,176.861432 C140.53911,176.861432 131.642515,186.715082 85.8064516,186.715082 C39.9703881,186.715082 31.0737928,176.861432 31.0737928,176.861432 C29.7087425,175.862027 28.3548833,173.69354 28.0531656,172.036119 L0,17.932125 Z"/>
    <path id="c" d="M0,17.932125 C0,17.932125 28.6021505,-8.65938835 85.8064516,9.23027099 C143.010753,27.1199303 171.612903,17.932125 171.612903,17.932125 L143.559738,172.036119 C143.256542,173.701661 141.952125,175.918959 140.53911,176.861432 C140.53911,176.861432 131.642515,186.715082 85.8064516,186.715082 C39.9703881,186.715082 31.0737928,176.861432 31.0737928,176.861432 C29.7087425,175.862027 28.3548833,173.69354 28.0531656,172.036119 L0,17.932125 Z"/>
    <path id="d" d="M1.37494231,33.8890845 C1.37494231,33.8890845 32.6120504,18.0251102 85.7269422,37.0561191 C138.841834,56.0871281 169.37437,33.8890845 169.37437,33.8890845 L146.564024,172.758135 C146.289205,174.431225 144.812146,176.329731 143.219182,176.933134 C143.219182,176.933134 128.970681,184.249369 85.7269422,184.249369 C42.4832033,184.249369 29.2302815,176.977489 29.2302815,176.977489 C27.6680023,176.320295 26.1618533,174.428618 25.8672308,172.758135 L1.37494231,33.8890845 Z"/>
    <path id="a" d="M186.512334,0.622742683 C188.165815,0.249705711 189.279797,1.31060917 189.002074,2.98276011 L156.784097,196.965148 C156.511393,198.635289 155.25138,200.848128 153.838321,201.806277 C153.838321,201.806277 144.110068,212.485526 95,212.485526 C45.889932,212.485526 36.1616795,201.806277 36.1616795,201.806277 C34.8074761,200.802736 33.4892027,198.638937 33.2159028,196.965148 L0.997925565,2.98276011 C0.719490697,1.3063215 1.82564041,0.258464338 3.4876657,0.622742683 C3.4876657,0.622742683 36.1616795,8.83666243 95,8.83666243 C153.838321,8.83666243 186.512334,0.622742683 186.512334,0.622742683 Z"/>
    <mask id="e" width="188.094" height="211.943" x="0" y="0" fill="white">
      <use xlink:href="#a"/>
    </mask>
  </defs>
  <g fill="none" fill-rule="evenodd" transform="translate(-1 -4)">
    <path stroke="#064961" stroke-width="4.608" d="M3.29196069,89.5027585 C3.29196069,89.5027585 16.6393649,79.5431098 94.7426285,79.5431098 C172.845892,79.5431098 186.685594,89.5027585 186.685594,89.5027585" stroke-linecap="round"/>
    <g transform="translate(0 87.03)">
      <g transform="translate(9.194 24.614)">
        <path fill="#30474F" d="M85.8064516,187.073736 C123.041133,187.073736 153.225806,180.564792 153.225806,177.899691 C153.225806,175.234589 123.041133,169.221635 85.8064516,169.221635 C48.5717701,169.221635 18.3870968,175.234589 18.3870968,177.899691 C18.3870968,180.564792 48.5717701,187.073736 85.8064516,187.073736 Z"/>
        <use fill="#28AAD9" opacity=".9" xlink:href="#b"/>
        <use fill="#48BFEC" opacity=".9" transform="matrix(-1 0 0 1 171.613 0)" xlink:href="#c"/>
        <use fill="#61D7FF" opacity=".8" xlink:href="#d"/>
        <path fill="#FFFFFF" d="M157.21282,9.36472888 C157.21282,9.36472888 161.329641,11.0202886 163.270401,12.2018654 C165.211162,13.3834422 167.910196,15.0833204 167.910196,15.0833204 L141.702448,173.60391 L130.342191,179.266165 L157.21282,9.36472888 Z" opacity=".56"/>
      </g>
      <use stroke="#064961" stroke-width="12.288" mask="url(#e)" stroke-linecap="round" stroke-linejoin="round" xlink:href="#a"/>
    </g>
    <g fill="#054961" transform="translate(58.226 200.87)">
      <ellipse cx="6.129" cy="6.154" rx="6.129" ry="6.154"/>
      <ellipse cx="67.419" cy="6.154" rx="6.129" ry="6.154"/>
      <path d="M55.1612903,18.460542 C55.1612903,8.26506618 46.9291067,0 36.7741935,0 C26.6192804,0 18.3870968,8.26506618 18.3870968,18.460542 L55.1612903,18.460542 Z" transform="matrix(1 0 0 -1 0 36.921)"/>
    </g>
    <path fill="#FB5C5C" d="M226.739225,7.50000503 C221.101508,7.50071415 215.930537,10.5872912 213.317486,15.5115042 C210.076073,9.43035429 203.046551,6.31044081 196.278771,7.9492101 C189.510992,9.58797939 184.748123,15.5633358 184.734152,22.4327535 C184.734152,30.6770027 189.928862,38.2107519 196.639732,44.3970012 C201.816951,48.9193036 207.398997,52.9701787 213.317486,56.5 C219.191589,52.9051524 224.76821,48.8582143 229.995239,44.3970012 C237.451761,37.6840019 241.900819,30.6770027 241.900819,22.4327535 C241.90082,18.470219 240.303046,14.6701584 237.459338,11.8693724 C234.61563,9.06858644 230.759186,7.49675439 226.739225,7.50000503 L226.739225,7.50000503 Z" transform="rotate(15 213.317 32)"/>
  </g>
</svg>
